<?xml version="1.0" standalone="no"?>
<!DOCTYPE svg PUBLIC "-//W3C//DTD SVG 20010904//EN"
 "http://www.w3.org/TR/2001/REC-SVG-20010904/DTD/svg10.dtd">
<svg version="1.0" xmlns="http://www.w3.org/2000/svg"
 width="512.000000pt" height="512.000000pt" viewBox="0 0 512.000000 512.000000"
 preserveAspectRatio="xMidYMid meet">

<g transform="translate(0.000000,512.000000) scale(0.100000,-0.100000)"
fill="#000000" stroke="none">
<path d="M2445 5059 c-342 -157 -1864 -916 -2240 -1117 -159 -85 -190 -119
-190 -212 0 -49 5 -65 31 -102 36 -49 96 -88 138 -88 59 0 272 100 1309 617
l1068 533 947 -474 c1226 -613 1360 -676 1432 -676 42 0 116 53 141 101 17 34
20 55 17 105 -7 119 84 65 -1268 743 -930 465 -1215 604 -1250 607 -37 4 -61
-3 -135 -37z"/>
<path d="M3560 3520 c-165 -8 -227 -17 -385 -56 -170 -43 -444 -159 -563 -238
l-53 -35 -62 40 c-188 122 -535 247 -779 279 -57 8 -195 10 -400 7 -298 -4
-318 -5 -421 -31 -263 -65 -485 -156 -662 -273 -111 -73 -157 -113 -196 -169
l-29 -43 0 -1321 c0 -1284 1 -1322 19 -1359 11 -20 36 -53 56 -73 l36 -35 382
-6 c210 -4 653 -7 984 -7 l602 0 83 -54 c160 -104 253 -136 388 -136 136 0
231 34 385 135 l80 53 976 3 975 4 36 25 c67 45 85 87 93 213 4 62 5 661 3
1332 -3 1157 -4 1222 -21 1253 -56 104 -309 270 -549 362 -297 113 -574 150
-978 130z m-1989 -390 c257 -26 504 -104 709 -226 l80 -48 0 -1033 c0 -1010 0
-1033 -19 -1033 -11 0 -80 22 -153 49 -246 91 -433 126 -722 137 -313 13 -566
-25 -856 -126 -95 -33 -181 -60 -191 -60 -18 0 -19 34 -19 1033 l0 1032 58 37
c179 114 425 200 662 233 118 16 315 18 451 5z m2419 -4 c243 -33 455 -106
653 -224 l77 -47 0 -1032 c0 -1004 -1 -1033 -19 -1033 -10 0 -90 25 -177 56
-299 105 -436 127 -779 128 -346 0 -528 -29 -799 -130 -65 -24 -134 -46 -152
-50 l-34 -6 0 1033 0 1034 58 37 c177 112 449 205 697 237 110 14 360 12 475
-3z"/>
</g>
</svg>
